<svg xmlns="http://www.w3.org/2000/svg"  viewBox="0 0 30 30" width="480px" height="480px"><path d="M24,4H6C4.9,4,4,4.9,4,6v18c0,1.1,0.9,2,2,2h18c1.1,0,2-0.9,2-2V6C26,4.9,25.1,4,24,4z M12.469,17.504h-1.575v-3.455	l-1.328,1.554l-1.328-1.554v3.455H6.662v-5.92h1.592l1.311,1.864l1.311-1.864h1.592V17.504z M16.8,14.294v-1.251h1.699v4.46H16.8	v-1.99h-1.845c0,0,0.021,1.02,0.667,1.99c-0.969,0.689-1.24,0.876-1.24,0.876s-1.021-1.814-1.021-3.67	c0-1.615,1.157-3.127,3.2-3.127c1.021,0,1.814,0,1.814,0l0.406,1.262c0,0-1.303,0-2.22,0s-1.24,1.084-1.303,1.449	C15.612,14.305,16.8,14.294,16.8,14.294z M23.071,17.504h-3.328v-5.92h1.517v4.603h2.159L23.071,17.504z"/></svg>